<svg width="24" height="25" viewBox="0 0 24 25" fill="none" xmlns="http://www.w3.org/2000/svg">
<mask id="mask0_124_568" style="mask-type:alpha" maskUnits="userSpaceOnUse" x="0" y="0" width="24" height="25">
<rect y="0.5" width="24" height="24" fill="#D9D9D9"/>
</mask>
<g mask="url(#mask0_124_568)">
<mask id="mask1_124_568" style="mask-type:alpha" maskUnits="userSpaceOnUse" x="3" y="1" width="25" height="24">
<rect x="3.16602" y="1" width="24" height="24" fill="#D9D9D9"/>
</mask>
<g mask="url(#mask1_124_568)">
<path d="M15.166 21C15.466 21 15.7535 20.9833 16.0285 20.95C16.3035 20.9167 16.5827 20.8667 16.866 20.8L15.666 19H12.166V18C12.166 17.45 12.3618 16.9792 12.7535 16.5875C13.1452 16.1958 13.616 16 14.166 16H16.166V13H14.166C13.8827 13 13.6452 12.9042 13.4535 12.7125C13.2618 12.5208 13.166 12.2833 13.166 12V10H12.716C12.2827 10 11.916 9.85417 11.616 9.5625C11.316 9.27083 11.166 8.90833 11.166 8.475C11.166 8.325 11.1868 8.175 11.2285 8.025C11.2702 7.875 11.3327 7.73333 11.416 7.6L12.966 5.325C11.2827 5.80833 9.89518 6.75 8.80352 8.15C7.71185 9.55 7.16602 11.1667 7.16602 13H8.16602V12C8.16602 11.7167 8.26185 11.4792 8.45352 11.2875C8.64518 11.0958 8.88268 11 9.16602 11H11.166C11.4493 11 11.6868 11.0958 11.8785 11.2875C12.0702 11.4792 12.166 11.7167 12.166 12V13C12.166 13.2833 12.0702 13.5208 11.8785 13.7125C11.6868 13.9042 11.4493 14 11.166 14V15C11.166 15.55 10.9702 16.0208 10.5785 16.4125C10.1868 16.8042 9.71602 17 9.16602 17H8.24102C8.94102 18.2 9.89935 19.1667 11.116 19.9C12.3327 20.6333 13.6827 21 15.166 21ZM22.766 15.45C22.8993 15.0667 22.9993 14.6708 23.066 14.2625C23.1327 13.8542 23.166 13.4333 23.166 13C23.166 11.1333 22.5993 9.4875 21.466 8.0625C20.3327 6.6375 18.8993 5.7 17.166 5.25V8C17.716 8 18.1868 8.19583 18.5785 8.5875C18.9702 8.97917 19.166 9.45 19.166 10V12C19.4827 12 19.766 12.0375 20.016 12.1125C20.266 12.1875 20.5077 12.3417 20.741 12.575L22.766 15.45ZM15.166 23C13.7827 23 12.4827 22.7375 11.266 22.2125C10.0493 21.6875 8.99102 20.975 8.09102 20.075C7.19102 19.175 6.47852 18.1167 5.95352 16.9C5.42852 15.6833 5.16602 14.3833 5.16602 13C5.16602 11.6167 5.42852 10.3167 5.95352 9.1C6.47852 7.88333 7.19102 6.825 8.09102 5.925C8.99102 5.025 10.0493 4.3125 11.266 3.7875C12.4827 3.2625 13.7827 3 15.166 3C16.5493 3 17.8493 3.2625 19.066 3.7875C20.2827 4.3125 21.341 5.025 22.241 5.925C23.141 6.825 23.8535 7.88333 24.3785 9.1C24.9035 10.3167 25.166 11.6167 25.166 13C25.166 14.3833 24.9035 15.6833 24.3785 16.9C23.8535 18.1167 23.141 19.175 22.241 20.075C21.341 20.975 20.2827 21.6875 19.066 22.2125C17.8493 22.7375 16.5493 23 15.166 23Z" fill="#1C1B1F"/>
</g>
</g>
</svg>
