<svg width="24" height="25" viewBox="0 0 24 25" fill="none" xmlns="http://www.w3.org/2000/svg">
<mask id="mask0_124_519" style="mask-type:alpha" maskUnits="userSpaceOnUse" x="0" y="0" width="24" height="25">
<rect y="0.5" width="24" height="24" fill="#D9D9D9"/>
</mask>
<g mask="url(#mask0_124_519)">
<path d="M15.166 17C16.416 17 17.4785 16.5625 18.3535 15.6875C19.2285 14.8125 19.666 13.75 19.666 12.5C19.666 11.25 19.2285 10.1875 18.3535 9.3125C17.4785 8.4375 16.416 8 15.166 8C13.916 8 12.8535 8.4375 11.9785 9.3125C11.1035 10.1875 10.666 11.25 10.666 12.5C10.666 13.75 11.1035 14.8125 11.9785 15.6875C12.8535 16.5625 13.916 17 15.166 17ZM15.166 15.2C14.416 15.2 13.7785 14.9375 13.2535 14.4125C12.7285 13.8875 12.466 13.25 12.466 12.5C12.466 11.75 12.7285 11.1125 13.2535 10.5875C13.7785 10.0625 14.416 9.8 15.166 9.8C15.916 9.8 16.5535 10.0625 17.0785 10.5875C17.6035 11.1125 17.866 11.75 17.866 12.5C17.866 13.25 17.6035 13.8875 17.0785 14.4125C16.5535 14.9375 15.916 15.2 15.166 15.2ZM15.166 20C12.7327 20 10.516 19.3208 8.51602 17.9625C6.51602 16.6042 5.06602 14.7833 4.16602 12.5C5.06602 10.2167 6.51602 8.39583 8.51602 7.0375C10.516 5.67917 12.7327 5 15.166 5C17.5993 5 19.816 5.67917 21.816 7.0375C23.816 8.39583 25.266 10.2167 26.166 12.5C25.266 14.7833 23.816 16.6042 21.816 17.9625C19.816 19.3208 17.5993 20 15.166 20ZM15.166 18C17.0493 18 18.7785 17.5042 20.3535 16.5125C21.9285 15.5208 23.1327 14.1833 23.966 12.5C23.1327 10.8167 21.9285 9.47917 20.3535 8.4875C18.7785 7.49583 17.0493 7 15.166 7C13.2827 7 11.5535 7.49583 9.97852 8.4875C8.40352 9.47917 7.19935 10.8167 6.36602 12.5C7.19935 14.1833 8.40352 15.5208 9.97852 16.5125C11.5535 17.5042 13.2827 18 15.166 18Z" fill="#2B2B2B"/>
</g>
</svg>
