<svg width="24" height="25" viewBox="0 0 24 25" fill="none" xmlns="http://www.w3.org/2000/svg">
<mask id="mask0_124_578" style="mask-type:alpha" maskUnits="userSpaceOnUse" x="0" y="0" width="24" height="25">
<rect y="0.5" width="24" height="24" fill="#D9D9D9"/>
</mask>
<g mask="url(#mask0_124_578)">
<mask id="mask1_124_578" style="mask-type:alpha" maskUnits="userSpaceOnUse" x="1" y="1" width="25" height="25">
<rect x="1.03418" y="1.30005" width="24" height="24" fill="#D9D9D9"/>
</mask>
<g mask="url(#mask1_124_578)">
<path d="M13.0342 23.3C11.6508 23.3 10.3508 23.0375 9.13418 22.5125C7.91751 21.9875 6.85918 21.275 5.95918 20.375C5.05918 19.475 4.34668 18.4167 3.82168 17.2C3.29668 15.9834 3.03418 14.6834 3.03418 13.3C3.03418 11.9167 3.29668 10.6167 3.82168 9.40005C4.34668 8.18338 5.05918 7.12505 5.95918 6.22505C6.85918 5.32505 7.91751 4.61255 9.13418 4.08755C10.3508 3.56255 11.6508 3.30005 13.0342 3.30005C14.4175 3.30005 15.7175 3.56255 16.9342 4.08755C18.1508 4.61255 19.2092 5.32505 20.1092 6.22505C21.0092 7.12505 21.7217 8.18338 22.2467 9.40005C22.7717 10.6167 23.0342 11.9167 23.0342 13.3C23.0342 14.6834 22.7717 15.9834 22.2467 17.2C21.7217 18.4167 21.0092 19.475 20.1092 20.375C19.2092 21.275 18.1508 21.9875 16.9342 22.5125C15.7175 23.0375 14.4175 23.3 13.0342 23.3ZM13.0342 21.3L12.3342 20.6C12.2342 20.5 12.1592 20.3917 12.1092 20.275C12.0592 20.1584 12.0342 20.0334 12.0342 19.9V14.3C11.4842 14.3 11.0133 14.1042 10.6217 13.7125C10.23 13.3209 10.0342 12.85 10.0342 12.3V11.3L6.90918 8.17505C6.32585 8.87505 5.86751 9.65838 5.53418 10.525C5.20085 11.3917 5.03418 12.3167 5.03418 13.3C5.03418 15.5334 5.80918 17.425 7.35918 18.975C8.90918 20.525 10.8008 21.3 13.0342 21.3ZM14.0342 21.25C16.0175 21 17.68 20.125 19.0217 18.625C20.3633 17.125 21.0342 15.35 21.0342 13.3C21.0342 11.0834 20.255 9.19588 18.6967 7.63755C17.1383 6.07922 15.2508 5.30005 13.0342 5.30005C12.3008 5.30005 11.5967 5.39588 10.9217 5.58755C10.2467 5.77922 9.61751 6.04172 9.03418 6.37505V8.30005H12.5842C12.8842 8.30005 13.1717 8.36672 13.4467 8.50005C13.7217 8.63338 13.9508 8.81672 14.1342 9.05005L15.5342 10.8H17.0342C17.3175 10.8 17.555 10.8959 17.7467 11.0875C17.9383 11.2792 18.0342 11.5167 18.0342 11.8V12.85C18.0342 13 18.0133 13.1417 17.9717 13.275C17.93 13.4084 17.8675 13.5417 17.7842 13.675L14.0342 19.3V21.25Z" fill="#1C1B1F"/>
</g>
</g>
</svg>
